<svg width="2048" height="2048" viewBox="0 0 2048 2048" xmlns="http://www.w3.org/2000/svg"><path d="M704 1536q0-53-37.5-90.5T576 1408t-90.5 37.5T448 1536t37.5 90.5T576 1664t90.5-37.5T704 1536zm-384-512h384V768H546q-14 2-22 9L329 972q-7 12-9 22v30zm1280 512q0-53-37.5-90.5T1472 1408t-90.5 37.5-37.5 90.5 37.5 90.5 90.5 37.5 90.5-37.5 37.5-90.5zm128-672V672q0-14-9-23t-23-9h-224V416q0-14-9-23t-23-9h-192q-14 0-23 9t-9 23v224H992q-14 0-23 9t-9 23v192q0 14 9 23t23 9h224v224q0 14 9 23t23 9h192q14 0 23-9t9-23V896h224q14 0 23-9t9-23zm256-544v1152q0 26-19 45t-45 19h-192q0 106-75 181t-181 75-181-75-75-181H832q0 106-75 181t-181 75-181-75-75-181H192q-26 0-45-19t-19-45 19-45 45-19V992q0-26 13-58t32-51l198-198q19-19 51-32t58-13h160V320q0-26 19-45t45-19h1152q26 0 45 19t19 45z"/></svg>