<svg width="2048" height="2048" viewBox="0 0 2048 2048" xmlns="http://www.w3.org/2000/svg"><path d="M1374 1004q-8 20-30 20h-192v352q0 14-9 23t-23 9H928q-14 0-23-9t-9-23v-352H704q-14 0-23-9t-9-23q0-12 10-24l319-319q11-9 23-9t23 9l320 320q15 16 7 35zm-350-524q-148 0-273 73T553 751t-73 273 73 273 198 198 273 73 273-73 198-198 73-273-73-273-198-198-273-73zm768 544q0 209-103 385.5T1409.5 1689 1024 1792t-385.5-103T359 1409.5 256 1024t103-385.5T638.5 359 1024 256t385.5 103T1689 638.5t103 385.5z"/></svg>