<svg width="2048" height="2048" viewBox="0 0 2048 2048" xmlns="http://www.w3.org/2000/svg"><path d="M1674 1178q46 26 59.5 77.5T1721 1353l-64 110q-26 46-77.5 59.5T1482 1510l-266-153v307q0 52-38 90t-90 38H960q-52 0-90-38t-38-90v-307l-266 153q-46 26-97.5 12.5T391 1463l-64-110q-26-46-12.5-97.5T374 1178l266-154-266-154q-46-26-59.5-77.5T327 695l64-110q26-46 77.5-59.5T566 538l266 153V384q0-52 38-90t90-38h128q52 0 90 38t38 90v307l266-153q46-26 97.5-12.5T1657 585l64 110q26 46 12.5 97.5T1674 870l-266 154z"/></svg>