<svg width="2048" height="2048" viewBox="0 0 2048 2048" xmlns="http://www.w3.org/2000/svg"><path d="M1504 256q119 0 203.5 84.5T1792 544v960q0 119-84.5 203.5T1504 1792H544q-119 0-203.5-84.5T256 1504V544q0-119 84.5-203.5T544 256h960zM755 623H384v787h382q117 0 197-57.5t80-170.5q0-158-143-200 107-52 107-164 0-57-19.5-96.5T931 661t-79-29.5-97-8.5zm-22 318H557V757h163q119 0 119 90 0 94-106 94zm9 335H557v-217h189q124 0 124 113 0 104-128 104zm650 32q-68 0-104-38t-36-107h411q1-10 1-30 0-132-74.5-220.5T1386 824q-128 0-210 86t-82 216q0 135 79 217t213 82q205 0 267-191h-138q-11 34-47.5 54t-75.5 20zm-10-366q113 0 124 122h-254q4-56 39-89t91-33zm-162-266h319v77h-319v-77z"/></svg>