<svg width="2048" height="2048" viewBox="0 0 2048 2048" xmlns="http://www.w3.org/2000/svg"><path d="M634 1280H320q-40 0-57.5-35t6.5-67l188-251q-65-31-137-31-132 0-226 94T0 1216t94 226 226 94q115 0 203-72.5T634 1280zm-186-128h186q-18-85-75-148zm480 0l288-384H736l-99 132q105 103 126 252h165zm1120 64q0-132-94-226t-226-94q-60 0-121 24l174 260q15 23 10 49t-27 40q-15 11-36 11-35 0-53-29l-174-260q-93 95-93 225 0 132 94 226t226 94 226-94 94-226zm128 0q0 185-131.5 316.5T1728 1664t-316.5-131.5T1280 1216q0-97 39.5-183.5T1429 883l-65-98-353 469q-18 26-51 26H763q-23 164-149 274t-294 110q-185 0-316.5-131.5T-128 1216 3.5 899.5 320 768q114 0 215 55l137-183H448q-26 0-45-19t-19-45 19-45 45-19h384v128h435l-85-128H960q-26 0-45-19t-19-45 19-45 45-19h256q33 0 53 28l267 400q91-44 192-44 185 0 316.5 131.5T2176 1216z"/></svg>