<svg width="2048" height="2048" viewBox="0 0 2048 2048" xmlns="http://www.w3.org/2000/svg"><path d="M1600 128q26 0 45 19t19 45v1664q0 26-19 45t-45 19H320q-26 0-45-19t-19-45V192q0-26 19-45t45-19h1280zM768 416v64q0 14 9 23t23 9h64q14 0 23-9t9-23v-64q0-14-9-23t-23-9h-64q-14 0-23 9t-9 23zm0 256v64q0 14 9 23t23 9h64q14 0 23-9t9-23v-64q0-14-9-23t-23-9h-64q-14 0-23 9t-9 23zm0 256v64q0 14 9 23t23 9h64q14 0 23-9t9-23v-64q0-14-9-23t-23-9h-64q-14 0-23 9t-9 23zm0 256v64q0 14 9 23t23 9h64q14 0 23-9t9-23v-64q0-14-9-23t-23-9h-64q-14 0-23 9t-9 23zm-128 320v-64q0-14-9-23t-23-9h-64q-14 0-23 9t-9 23v64q0 14 9 23t23 9h64q14 0 23-9t9-23zm0-256v-64q0-14-9-23t-23-9h-64q-14 0-23 9t-9 23v64q0 14 9 23t23 9h64q14 0 23-9t9-23zm0-256v-64q0-14-9-23t-23-9h-64q-14 0-23 9t-9 23v64q0 14 9 23t23 9h64q14 0 23-9t9-23zm0-256v-64q0-14-9-23t-23-9h-64q-14 0-23 9t-9 23v64q0 14 9 23t23 9h64q14 0 23-9t9-23zm0-256v-64q0-14-9-23t-23-9h-64q-14 0-23 9t-9 23v64q0 14 9 23t23 9h64q14 0 23-9t9-23zm512 1280v-192q0-14-9-23t-23-9H800q-14 0-23 9t-9 23v192q0 14 9 23t23 9h320q14 0 23-9t9-23zm0-512v-64q0-14-9-23t-23-9h-64q-14 0-23 9t-9 23v64q0 14 9 23t23 9h64q14 0 23-9t9-23zm0-256v-64q0-14-9-23t-23-9h-64q-14 0-23 9t-9 23v64q0 14 9 23t23 9h64q14 0 23-9t9-23zm0-256v-64q0-14-9-23t-23-9h-64q-14 0-23 9t-9 23v64q0 14 9 23t23 9h64q14 0 23-9t9-23zm0-256v-64q0-14-9-23t-23-9h-64q-14 0-23 9t-9 23v64q0 14 9 23t23 9h64q14 0 23-9t9-23zm256 1024v-64q0-14-9-23t-23-9h-64q-14 0-23 9t-9 23v64q0 14 9 23t23 9h64q14 0 23-9t9-23zm0-256v-64q0-14-9-23t-23-9h-64q-14 0-23 9t-9 23v64q0 14 9 23t23 9h64q14 0 23-9t9-23zm0-256v-64q0-14-9-23t-23-9h-64q-14 0-23 9t-9 23v64q0 14 9 23t23 9h64q14 0 23-9t9-23zm0-256v-64q0-14-9-23t-23-9h-64q-14 0-23 9t-9 23v64q0 14 9 23t23 9h64q14 0 23-9t9-23zm0-256v-64q0-14-9-23t-23-9h-64q-14 0-23 9t-9 23v64q0 14 9 23t23 9h64q14 0 23-9t9-23z"/></svg>