<svg width="2048" height="2048" viewBox="0 0 2048 2048" xmlns="http://www.w3.org/2000/svg"><path d="M704 1440v64q0 13-9.5 22.5T672 1536h-64q-13 0-22.5-9.5T576 1504v-64q0-13 9.5-22.5t22.5-9.5h64q13 0 22.5 9.5t9.5 22.5zm0-256v64q0 13-9.5 22.5T672 1280h-64q-13 0-22.5-9.5T576 1248v-64q0-13 9.5-22.5t22.5-9.5h64q13 0 22.5 9.5t9.5 22.5zm256 0v64q0 13-9.5 22.5T928 1280h-64q-13 0-22.5-9.5T832 1248v-64q0-13 9.5-22.5t22.5-9.5h64q13 0 22.5 9.5t9.5 22.5zM704 928v64q0 13-9.5 22.5T672 1024h-64q-13 0-22.5-9.5T576 992v-64q0-13 9.5-22.5T608 896h64q13 0 22.5 9.5T704 928zm768 512v64q0 13-9.5 22.5t-22.5 9.5h-64q-13 0-22.5-9.5t-9.5-22.5v-64q0-13 9.5-22.5t22.5-9.5h64q13 0 22.5 9.5t9.5 22.5zm-256-256v64q0 13-9.5 22.5t-22.5 9.5h-64q-13 0-22.5-9.5t-9.5-22.5v-64q0-13 9.5-22.5t22.5-9.5h64q13 0 22.5 9.5t9.5 22.5zM960 928v64q0 13-9.5 22.5T928 1024h-64q-13 0-22.5-9.5T832 992v-64q0-13 9.5-22.5T864 896h64q13 0 22.5 9.5T960 928zM704 672v64q0 13-9.5 22.5T672 768h-64q-13 0-22.5-9.5T576 736v-64q0-13 9.5-22.5T608 640h64q13 0 22.5 9.5T704 672zm768 512v64q0 13-9.5 22.5t-22.5 9.5h-64q-13 0-22.5-9.5t-9.5-22.5v-64q0-13 9.5-22.5t22.5-9.5h64q13 0 22.5 9.5t9.5 22.5zm-256-256v64q0 13-9.5 22.5t-22.5 9.5h-64q-13 0-22.5-9.5T1088 992v-64q0-13 9.5-22.5t22.5-9.5h64q13 0 22.5 9.5t9.5 22.5zM960 672v64q0 13-9.5 22.5T928 768h-64q-13 0-22.5-9.5T832 736v-64q0-13 9.5-22.5T864 640h64q13 0 22.5 9.5T960 672zM704 416v64q0 13-9.5 22.5T672 512h-64q-13 0-22.5-9.5T576 480v-64q0-13 9.5-22.5T608 384h64q13 0 22.5 9.5T704 416zm768 512v64q0 13-9.5 22.5t-22.5 9.5h-64q-13 0-22.5-9.5T1344 992v-64q0-13 9.5-22.5t22.5-9.5h64q13 0 22.5 9.5t9.5 22.5zm-256-256v64q0 13-9.5 22.5T1184 768h-64q-13 0-22.5-9.5T1088 736v-64q0-13 9.5-22.5t22.5-9.5h64q13 0 22.5 9.5t9.5 22.5zM960 416v64q0 13-9.5 22.5T928 512h-64q-13 0-22.5-9.5T832 480v-64q0-13 9.5-22.5T864 384h64q13 0 22.5 9.5T960 416zm512 256v64q0 13-9.5 22.5T1440 768h-64q-13 0-22.5-9.5T1344 736v-64q0-13 9.5-22.5t22.5-9.5h64q13 0 22.5 9.5t9.5 22.5zm-256-256v64q0 13-9.5 22.5T1184 512h-64q-13 0-22.5-9.5T1088 480v-64q0-13 9.5-22.5t22.5-9.5h64q13 0 22.5 9.5t9.5 22.5zm256 0v64q0 13-9.5 22.5T1440 512h-64q-13 0-22.5-9.5T1344 480v-64q0-13 9.5-22.5t22.5-9.5h64q13 0 22.5 9.5t9.5 22.5zm-256 1376h384V256H448v1536h384v-224q0-13 9.5-22.5t22.5-9.5h320q13 0 22.5 9.5t9.5 22.5v224zm512-1600v1664q0 26-19 45t-45 19H384q-26 0-45-19t-19-45V192q0-26 19-45t45-19h1280q26 0 45 19t19 45z"/></svg>