<svg width="2048" height="2048" viewBox="0 0 2048 2048" xmlns="http://www.w3.org/2000/svg"><path d="M1280 1024q0 106-75 181t-181 75-181-75-75-181 75-181 181-75 181 75 75 181zm128 0q0-159-112.5-271.5T1024 640 752.5 752.5 640 1024t112.5 271.5T1024 1408t271.5-112.5T1408 1024zm128 0q0 212-150 362t-362 150-362-150-150-362 150-362 362-150 362 150 150 362zm128 0q0-130-51-248.5t-136.5-204-204-136.5-248.5-51-248.5 51-204 136.5-136.5 204-51 248.5 51 248.5 136.5 204 204 136.5 248.5 51 248.5-51 204-136.5 136.5-204 51-248.5zm128 0q0 209-103 385.5T1409.5 1689 1024 1792t-385.5-103T359 1409.5 256 1024t103-385.5T638.5 359 1024 256t385.5 103T1689 638.5t103 385.5z"/></svg>