<svg xmlns="http://www.w3.org/2000/svg" viewBox="0 0 2048 2048"><path d="M582.3 1725.3s315.4 182 441.6 182c189.2 0 441.6-182 441.6-182 2.2-2.3 4-4.9 6.3-7.2H576.1c2.2 2.1 4 4.8 6.2 7.2zm315.4-1472V157C703 197.5 340.8 339.2 234.3 834.8h-62c-17.3 0-31.5 14.2-31.5 31.5v126.2c0 17.3 14.2 31.5 31.5 31.5h35.9c-1.5 20.5-2.3 41.6-3.1 63h-32.9c-17.3 0-31.5 14.2-31.5 31.5v126.2c0 17.3 14.2 31.5 31.5 31.5h40.2c8.1 72.3 23.9 165.2 54.4 260.8v243.9h238.9c-204.5-224.1-207.2-624.6-207.2-641.8 0-659.8 391.5-837.7 599.2-885.8zm189.2-112.5h-126v188.5H1087V140.8h-.1zm63.2 208.4v43.2H897.7v-43.2C713.7 396.6 393 561.7 393 1139.1c0 0 .4 308.8 134.6 515.6h370.1v-63h252.4v63h370.1c134.3-206.9 134.6-515.6 134.6-515.6 0-577.4-320.7-742.5-504.7-789.9zm-583.6 861.1c-29.1-33.2-47.3-76.3-47.3-124s18.3-90.7 47.3-124v248zm126.2-183.8c-27 7.1-47.3 30.7-47.3 59.8 0 29.3 20.4 52.7 47.3 59.8v127.8c-35.2-2.9-67.6-15-94.7-34.6V933.1c27.1-19.5 59.5-31.5 94.7-34.6v128zm126.2 212.9c-27.1 19.5-59.5 31.5-94.7 34.6v-127.8c27-7.1 47.3-30.7 47.3-59.8 0-29.3-20.4-52.7-47.3-59.8V898.7c35.2 2.9 67.6 15 94.7 34.6v306.1zm31.5-29.1v-248c29.1 33.2 47.3 76.3 47.3 124s-18.3 90.7-47.3 124zm173.5 129.1l-126.2 63 126.2-126.2 126.2 126.2-126.2-63zm173.5-129.1c-29.1-33.2-47.3-76.3-47.3-124s18.3-90.7 47.3-124v248zm126.2-183.8c-27 7.1-47.3 30.7-47.3 59.8 0 29.3 20.4 52.7 47.3 59.8v127.8c-35.2-2.9-67.6-15-94.7-34.6V933.1c27.1-19.5 59.5-31.5 94.7-34.6v128zm126.1 212.9c-27.1 19.5-59.5 31.5-94.7 34.6v-127.8c27-7.1 47.3-30.7 47.3-59.8 0-29.3-20.4-52.7-47.3-59.8V898.7c35.2 2.9 67.6 15 94.7 34.6v306.1zm31.5-29.1v-248c29.1 33.2 47.3 76.3 47.3 124 .1 47.7-18.2 90.7-47.3 124zm425.9-217.8V866.3c0-17.3-14.2-31.5-31.5-31.5h-62c-106.4-495.6-468.8-637.3-663.4-677.7v96.3c207.7 48.1 599.2 226 599.2 885.9 0 17.2-2.8 417.6-207.2 641.8h238.9v-243.9c30.4-95.6 46.2-188.5 54.4-260.8h40.2c17.3 0 31.5-14.2 31.5-31.5v-126.2c0-17.3-14.2-31.5-31.5-31.5h-32.9c-.6-21.5-1.6-42.5-3.1-63h35.9c17.3-.2 31.5-14.4 31.5-31.7z"/></svg>