<svg width="2048" height="2048" viewBox="0 0 2048 2048" xmlns="http://www.w3.org/2000/svg"><path d="M512 1664q0-53-37.5-90.5T384 1536t-90.5 37.5T256 1664t37.5 90.5T384 1792t90.5-37.5T512 1664zm384 0q0-53-37.5-90.5T768 1536t-90.5 37.5T640 1664t37.5 90.5T768 1792t90.5-37.5T896 1664zm-384-384q0-53-37.5-90.5T384 1152t-90.5 37.5T256 1280t37.5 90.5T384 1408t90.5-37.5T512 1280zm768 384q0-53-37.5-90.5T1152 1536t-90.5 37.5-37.5 90.5 37.5 90.5 90.5 37.5 90.5-37.5 37.5-90.5zm-384-384q0-53-37.5-90.5T768 1152t-90.5 37.5T640 1280t37.5 90.5T768 1408t90.5-37.5T896 1280zM512 896q0-53-37.5-90.5T384 768t-90.5 37.5T256 896t37.5 90.5T384 1024t90.5-37.5T512 896zm768 384q0-53-37.5-90.5T1152 1152t-90.5 37.5-37.5 90.5 37.5 90.5 90.5 37.5 90.5-37.5 37.5-90.5zM896 896q0-53-37.5-90.5T768 768t-90.5 37.5T640 896t37.5 90.5T768 1024t90.5-37.5T896 896zm768 768v-384q0-52-38-90t-90-38-90 38-38 90v384q0 52 38 90t90 38 90-38 38-90zm-384-768q0-53-37.5-90.5T1152 768t-90.5 37.5T1024 896t37.5 90.5 90.5 37.5 90.5-37.5T1280 896zm384-320V320q0-26-19-45t-45-19H320q-26 0-45 19t-19 45v256q0 26 19 45t45 19h1280q26 0 45-19t19-45zm0 320q0-53-37.5-90.5T1536 768t-90.5 37.5T1408 896t37.5 90.5 90.5 37.5 90.5-37.5T1664 896zm128-640v1536q0 52-38 90t-90 38H256q-52 0-90-38t-38-90V256q0-52 38-90t90-38h1408q52 0 90 38t38 90z"/></svg>