<svg width="2048" height="2048" viewBox="0 0 2048 2048" xmlns="http://www.w3.org/2000/svg"><path d="M1056 960q0-14-9-23t-23-9q-66 0-113 47t-47 113q0 14 9 23t23 9 23-9 9-23q0-40 28-68t68-28q14 0 23-9t9-23zm224 130q0 106-75 181t-181 75-181-75-75-181 75-181 181-75 181 75 75 181zM256 1664h1536v-128H256v128zm1152-574q0-159-112.5-271.5T1024 706 752.5 818.5 640 1090t112.5 271.5T1024 1474t271.5-112.5T1408 1090zM384 448h384V320H384v128zM256 640h1536V384H964l-64 128H256v128zm1664-256v1280q0 53-37.5 90.5T1792 1792H256q-53 0-90.5-37.5T128 1664V384q0-53 37.5-90.5T256 256h1536q53 0 90.5 37.5T1920 384z"/></svg>