<svg width="2048" height="2048" viewBox="0 0 2048 2048" xmlns="http://www.w3.org/2000/svg"><path d="M1406 1202v109q0 50-36.5 89t-94 60.5-118 32.5-117.5 11q-205 0-342.5-139T560 1019q0-203 136-339t339-136q34 0 75.5 4.5t93 18 92.5 34 69 56.5 28 81v109q0 16-16 16h-118q-16 0-16-16v-70q0-43-65.5-67.5T1040 685q-140 0-228.5 91.5T723 1014q0 151 91.5 249.5T1048 1362q68 0 138-24t70-66v-70q0-7 4.5-11.5t10.5-4.5h119q6 0 11 4.5t5 11.5zm-382-818q-130 0-248.5 51t-204 136.5-136.5 204-51 248.5 51 248.5 136.5 204 204 136.5 248.5 51 248.5-51 204-136.5 136.5-204 51-248.5-51-248.5-136.5-204-204-136.5-248.5-51zm768 640q0 209-103 385.5T1409.5 1689 1024 1792t-385.5-103T359 1409.5 256 1024t103-385.5T638.5 359 1024 256t385.5 103T1689 638.5t103 385.5z"/></svg>