<svg width="2048" height="2048" viewBox="0 0 2048 2048" xmlns="http://www.w3.org/2000/svg"><path d="M1453 1152h-109q-26 0-45-19t-19-45V960q0-26 19-45t45-19h109q-32-108-112.5-188.5T1152 595v109q0 26-19 45t-45 19H960q-26 0-45-19t-19-45V595q-108 32-188.5 112.5T595 896h109q26 0 45 19t19 45v128q0 26-19 45t-45 19H595q32 108 112.5 188.5T896 1453v-109q0-26 19-45t45-19h128q26 0 45 19t19 45v109q108-32 188.5-112.5T1453 1152zm339-192v128q0 26-19 45t-45 19h-143q-37 161-154.5 278.5T1152 1585v143q0 26-19 45t-45 19H960q-26 0-45-19t-19-45v-143q-161-37-278.5-154.5T463 1152H320q-26 0-45-19t-19-45V960q0-26 19-45t45-19h143q37-161 154.5-278.5T896 463V320q0-26 19-45t45-19h128q26 0 45 19t19 45v143q161 37 278.5 154.5T1585 896h143q26 0 45 19t19 45z"/></svg>