<svg xmlns="http://www.w3.org/2000/svg" viewBox="0 0 2048 2048"><path d="M1644.2 875.2V652c0-272.8-223.3-496-496-496H900.1c-272.8 0-496 223.3-496 496v223.3L155.9 1520c0 124 388.7 372 868 372s868.1-248.1 868.1-372l-247.8-644.8zm-992.1 815.4c-25.7 0-46.5-20.8-46.5-46.5s20.8-46.5 46.5-46.5 46.5 20.8 46.5 46.5-20.8 46.5-46.5 46.5zm-62-666.6c0-34.1 17.2-83.9 38.2-110.8 0 0 59-75.1 178.8-75.1 60.7 0 103.2 27.9 103.2 27.9 28.5 18.7 51.8 62 51.8 96.2v93c0 17.1-27.9 30.9-62 30.9h-248c-34.1-.1-62-28-62-62.1zm248 620.1h-62v-124l62-62v186zm155.1 0h-93V1396h93v248.1zm-62-310.1v-93c0-51.5 41.6-93 93-93 51.3 0 93 41.6 93 93v93h-186zm217 310.1h-93V1396h93v248.1zm124 0h-62V1458l62 62v124.1zm123.9 46.5c-25.7 0-46.5-20.8-46.5-46.5s20.8-46.5 46.5-46.5 46.5 20.8 46.5 46.5-20.7 46.5-46.5 46.5zm0-604.6H1148c-34.1 0-62-14-62-30.9v-93c0-34.1 23.3-77.3 51.8-96.2 0 0 42.4-27.9 103.3-27.9 119.8 0 178.8 75.1 178.8 75.1 21 26.9 38.2 76.7 38.2 110.8.1 34.2-27.8 62.1-62 62.1zm383.4 463c-3.7 1.4-7.5 2.2-11.2 2.2-12.4 0-24.1-7.5-28.9-19.7L1514 952.3c-59.6-149-133.3-207.2-262.9-207.2-86 0-158 53.2-158.7 53.9-38.2 28.7-98.1 28.5-136.4 0-.6-.5-73.5-53.9-158.7-53.9-129.5 0-203.3 58.1-262.9 207.3l-225.4 579c-6.2 15.9-24.3 23.8-40.1 17.6-15.9-6.1-23.8-24.2-17.7-40.1l225.4-579.2C545.8 756.8 641.7 683 797.2 683c106.3 0 192.3 63.6 195.9 66.2 16.2 12.2 45.8 12.2 62 0 3.7-2.7 89.5-66.2 195.9-66.2 155.5 0 251.4 73.7 320.6 246.4l225.5 579.5c6.2 15.9-1.7 33.8-17.6 40.1z"/></svg>