<svg xmlns="http://www.w3.org/2000/svg" viewBox="0 0 2048 2048"><path d="M1871.2 993.6c-1.9-51.8-7.7-102.6-18.5-151.6H1509v-60.5h121.2v-60.6h-242.4v-60.6h181.8v-60.6H1509v-60.6h-121.2v-60.6h60.6v-60.6h-121.2v-60.6h60.6V258c-110.3-52.5-233.4-82.7-363.8-82.7-458.5 0-831.1 363.8-847.2 818.4h1694.4v-.1zM720.9 357.2c133.9 0 242.4 108.6 242.4 242.4S854.8 842 720.9 842 478.5 733.5 478.5 599.6s108.4-242.4 242.4-242.4zM1205.8 1812.1h-60.6v-60.6H1327v-60.6h60.6v-60.6h181.8v-60.6h60.6V1509h-121.2v-60.6H1327v-60.6h121.2v-60.6h242.4v-60.7h-121.2v-60.6h283.1c10.7-49 16.7-99.8 18.5-151.6H176.8c16.1 454.6 388.7 818.4 847.2 818.4 62.5 0 123.2-7.2 181.8-20v-40.6z"/></svg>