<svg width="2048" height="2048" viewBox="0 0 2048 2048" xmlns="http://www.w3.org/2000/svg"><path d="M1653 256q58 0 98.5 40.5T1792 395v1258q0 58-40.5 98.5T1653 1792H395q-58 0-98.5-40.5T256 1653V395q0-58 40.5-98.5T395 256h1258zm68 1397V395q0-28-20-48t-48-20H395q-28 0-48 20t-20 48v1258q0 28 20 48t48 20h1258q28 0 48-20t20-48zM950 915l188 387 533-145v496q0 7-5.5 12.5t-12.5 5.5H395q-7 0-12.5-5.5T377 1653v-141l711-195-212-439q4-1 12-2.5t12-1.5q170-32 303.5-21.5t221 46T1568 993q27 28-25 42-64 16-256 62l-97-198q-111-7-240 16zm703-538q7 0 12.5 5.5t5.5 12.5v428q-85-30-188-52-294-64-645-12l-18 3-65-134H522l85 190q-132 51-230 137V395q0-7 5.5-12.5T395 377h1258zM542 1277q-14 3-26-4.5t-14-21.5q-24-203 166-305l129 270z"/></svg>