<svg width="2048" height="2048" viewBox="0 0 2048 2048" xmlns="http://www.w3.org/2000/svg"><path d="M1724 508q28 28 48 76t20 88v1152q0 40-28 68t-68 28H352q-40 0-68-28t-28-68V224q0-40 28-68t68-28h896q40 0 88 20t76 48zm-444-244v376h376q-10-29-22-41l-313-313q-12-12-41-22zm384 1528V768h-416q-40 0-68-28t-28-68V256H384v1536h1280zM640 928q0-14 9-23t23-9h704q14 0 23 9t9 23v64q0 14-9 23t-23 9H672q-14 0-23-9t-9-23v-64zm736 224q14 0 23 9t9 23v64q0 14-9 23t-23 9H672q-14 0-23-9t-9-23v-64q0-14 9-23t23-9h704zm0 256q14 0 23 9t9 23v64q0 14-9 23t-23 9H672q-14 0-23-9t-9-23v-64q0-14 9-23t23-9h704z"/></svg>