<svg width="2048" height="2048" viewBox="0 0 2048 2048" xmlns="http://www.w3.org/2000/svg"><path d="M1728 1824v64q0 13-9.5 22.5t-22.5 9.5H352q-13 0-22.5-9.5T320 1888v-64q0-13 9.5-22.5t22.5-9.5h1344q13 0 22.5 9.5t9.5 22.5zM1472 768q0 78-24.5 144t-64 112.5-87.5 88-96 77.5-87.5 72-64 81.5-24.5 96.5q0 96 67 224l-4-1 1 1q-90-41-160-83t-138.5-100T676 1358.5 603.5 1208 576 1024q0-78 24.5-144t64-112.5 87.5-88 96-77.5 87.5-72 64-81.5T1024 352q0-94-66-224l3 1-1-1q90 41 160 83t138.5 100T1372 433.5t72.5 150.5 27.5 184z"/></svg>