<svg width="2048" height="2048" viewBox="0 0 2048 2048" xmlns="http://www.w3.org/2000/svg"><path d="M640 1664h768v-384H640v384zm896 0h128V768q0-14-10-38.5t-20-34.5l-281-281q-10-10-34-20t-39-10v416q0 40-28 68t-68 28H608q-40 0-68-28t-28-68V384H384v1280h128v-416q0-40 28-68t68-28h832q40 0 68 28t28 68v416zm-384-928V416q0-13-9.5-22.5T1120 384H928q-13 0-22.5 9.5T896 416v320q0 13 9.5 22.5T928 768h192q13 0 22.5-9.5t9.5-22.5zm640 32v928q0 40-28 68t-68 28H352q-40 0-68-28t-28-68V352q0-40 28-68t68-28h928q40 0 88 20t76 48l280 280q28 28 48 76t20 88z"/></svg>