<svg width="2048" height="2048" viewBox="0 0 2048 2048" xmlns="http://www.w3.org/2000/svg"><path d="M1390 1357q8 25-4 48.5t-37 31.5-49-4-32-38q-25-80-92.5-129.5T1024 1216t-151.5 49.5T780 1395q-8 26-31.5 38t-48.5 4q-26-8-38-31.5t-4-48.5q37-121 138-195t228-74 228 74 138 195zM896 768q0 53-37.5 90.5T768 896t-90.5-37.5T640 768t37.5-90.5T768 640t90.5 37.5T896 768zm512 0q0 53-37.5 90.5T1280 896t-90.5-37.5T1152 768t37.5-90.5T1280 640t90.5 37.5T1408 768zm256 256q0-130-51-248.5t-136.5-204-204-136.5-248.5-51-248.5 51-204 136.5-136.5 204-51 248.5 51 248.5 136.5 204 204 136.5 248.5 51 248.5-51 204-136.5 136.5-204 51-248.5zm128 0q0 209-103 385.5T1409.5 1689 1024 1792t-385.5-103T359 1409.5 256 1024t103-385.5T638.5 359 1024 256t385.5 103T1689 638.5t103 385.5z"/></svg>