<svg width="2048" height="2048" viewBox="0 0 2048 2048" xmlns="http://www.w3.org/2000/svg"><path d="M1184 1484V768H864v716q0 25 18 38.5t46 13.5h192q28 0 46-13.5t18-38.5zM728 640h195L797 479q-26-31-69-31-40 0-68 28t-28 68 28 68 68 28zm688-96q0-40-28-68t-68-28q-43 0-69 31l-125 161h194q40 0 68-28t28-68zm376 256v320q0 14-9 23t-23 9h-96v416q0 40-28 68t-68 28H480q-40 0-68-28t-28-68v-416h-96q-14 0-23-9t-9-23V800q0-14 9-23t23-9h440q-93 0-158.5-65.5T504 544t65.5-158.5T728 320q107 0 168 77l128 165 128-165q61-77 168-77 93 0 158.5 65.5T1544 544t-65.5 158.5T1320 768h440q14 0 23 9t9 23z"/></svg>