<svg width="2048" height="2048" viewBox="0 0 2048 2048" xmlns="http://www.w3.org/2000/svg"><path d="M1296 1344q0 33-23.5 56.5T1216 1424t-56.5-23.5-23.5-56.5 23.5-56.5 56.5-23.5 56.5 23.5 23.5 56.5zm256 0q0 33-23.5 56.5T1472 1424t-56.5-23.5-23.5-56.5 23.5-56.5 56.5-23.5 56.5 23.5 23.5 56.5zm112 160v-320q0-13-9.5-22.5t-22.5-9.5H416q-13 0-22.5 9.5T384 1184v320q0 13 9.5 22.5t22.5 9.5h1216q13 0 22.5-9.5t9.5-22.5zM434 1024h1180l-157-482q-4-13-16-21.5t-26-8.5H633q-14 0-26 8.5T591 542zm1358 160v320q0 66-47 113t-113 47H416q-66 0-113-47t-47-113v-320q0-25 16-75l197-606q17-53 63-86t101-33h782q55 0 101 33t63 86l197 606q16 50 16 75z"/></svg>