<svg width="2048" height="2048" viewBox="0 0 2048 2048" xmlns="http://www.w3.org/2000/svg"><path d="M704 1440v64q0 13-9.5 22.5T672 1536h-64q-13 0-22.5-9.5T576 1504v-64q0-13 9.5-22.5t22.5-9.5h64q13 0 22.5 9.5t9.5 22.5zm0-256v64q0 13-9.5 22.5T672 1280h-64q-13 0-22.5-9.5T576 1248v-64q0-13 9.5-22.5t22.5-9.5h64q13 0 22.5 9.5t9.5 22.5zm256 0v64q0 13-9.5 22.5T928 1280h-64q-13 0-22.5-9.5T832 1248v-64q0-13 9.5-22.5t22.5-9.5h64q13 0 22.5 9.5t9.5 22.5zM704 928v64q0 13-9.5 22.5T672 1024h-64q-13 0-22.5-9.5T576 992v-64q0-13 9.5-22.5T608 896h64q13 0 22.5 9.5T704 928zm768 512v64q0 13-9.5 22.5t-22.5 9.5h-64q-13 0-22.5-9.5t-9.5-22.5v-64q0-13 9.5-22.5t22.5-9.5h64q13 0 22.5 9.5t9.5 22.5zm-256-256v64q0 13-9.5 22.5t-22.5 9.5h-64q-13 0-22.5-9.5t-9.5-22.5v-64q0-13 9.5-22.5t22.5-9.5h64q13 0 22.5 9.5t9.5 22.5zM960 928v64q0 13-9.5 22.5T928 1024h-64q-13 0-22.5-9.5T832 992v-64q0-13 9.5-22.5T864 896h64q13 0 22.5 9.5T960 928zm512 256v64q0 13-9.5 22.5t-22.5 9.5h-64q-13 0-22.5-9.5t-9.5-22.5v-64q0-13 9.5-22.5t22.5-9.5h64q13 0 22.5 9.5t9.5 22.5zm-256-256v64q0 13-9.5 22.5t-22.5 9.5h-64q-13 0-22.5-9.5T1088 992v-64q0-13 9.5-22.5t22.5-9.5h64q13 0 22.5 9.5t9.5 22.5zm256 0v64q0 13-9.5 22.5t-22.5 9.5h-64q-13 0-22.5-9.5T1344 992v-64q0-13 9.5-22.5t22.5-9.5h64q13 0 22.5 9.5t9.5 22.5zm-256 864h384V640h-256v32q0 40-28 68t-68 28H800q-40 0-68-28t-28-68v-32H448v1152h384v-224q0-13 9.5-22.5t22.5-9.5h320q13 0 22.5 9.5t9.5 22.5v224zm0-1184V288q0-13-9.5-22.5T1184 256h-64q-13 0-22.5 9.5T1088 288v96H960v-96q0-13-9.5-22.5T928 256h-64q-13 0-22.5 9.5T832 288v320q0 13 9.5 22.5T864 640h64q13 0 22.5-9.5T960 608v-96h128v96q0 13 9.5 22.5t22.5 9.5h64q13 0 22.5-9.5t9.5-22.5zm512-32v1280q0 26-19 45t-45 19H384q-26 0-45-19t-19-45V576q0-26 19-45t45-19h320V224q0-40 28-68t68-28h448q40 0 68 28t28 68v288h320q26 0 45 19t19 45z"/></svg>