<svg width="2048" height="2048" viewBox="0 0 2048 2048" xmlns="http://www.w3.org/2000/svg"><path d="M480 960q0 14-9 23l-288 288q-9 9-23 9-13 0-22.5-9.5T128 1248V672q0-13 9.5-22.5T160 640q14 0 23 9l288 288q9 9 9 23zm1440 480v192q0 13-9.5 22.5t-22.5 9.5H160q-13 0-22.5-9.5T128 1632v-192q0-13 9.5-22.5t22.5-9.5h1728q13 0 22.5 9.5t9.5 22.5zm0-384v192q0 13-9.5 22.5t-22.5 9.5H800q-13 0-22.5-9.5T768 1248v-192q0-13 9.5-22.5t22.5-9.5h1088q13 0 22.5 9.5t9.5 22.5zm0-384v192q0 13-9.5 22.5T1888 896H800q-13 0-22.5-9.5T768 864V672q0-13 9.5-22.5T800 640h1088q13 0 22.5 9.5t9.5 22.5zm0-384v192q0 13-9.5 22.5T1888 512H160q-13 0-22.5-9.5T128 480V288q0-13 9.5-22.5T160 256h1728q13 0 22.5 9.5t9.5 22.5z"/></svg>