<svg width="2048" height="2048" viewBox="0 0 2048 2048" xmlns="http://www.w3.org/2000/svg"><path d="M448 1296v96q0 16-16 16h-96q-16 0-16-16v-96q0-16 16-16h96q16 0 16 16zm128-256v96q0 16-16 16H336q-16 0-16-16v-96q0-16 16-16h224q16 0 16 16zM448 784v96q0 16-16 16h-96q-16 0-16-16v-96q0-16 16-16h96q16 0 16 16zm1024 512v96q0 16-16 16H592q-16 0-16-16v-96q0-16 16-16h864q16 0 16 16zm-640-256v96q0 16-16 16h-96q-16 0-16-16v-96q0-16 16-16h96q16 0 16 16zM704 784v96q0 16-16 16h-96q-16 0-16-16v-96q0-16 16-16h96q16 0 16 16zm384 256v96q0 16-16 16h-96q-16 0-16-16v-96q0-16 16-16h96q16 0 16 16zM960 784v96q0 16-16 16h-96q-16 0-16-16v-96q0-16 16-16h96q16 0 16 16zm384 256v96q0 16-16 16h-96q-16 0-16-16v-96q0-16 16-16h96q16 0 16 16zm384 256v96q0 16-16 16h-96q-16 0-16-16v-96q0-16 16-16h96q16 0 16 16zm-512-512v96q0 16-16 16h-96q-16 0-16-16v-96q0-16 16-16h96q16 0 16 16zm256 0v96q0 16-16 16h-96q-16 0-16-16v-96q0-16 16-16h96q16 0 16 16zm256 0v352q0 16-16 16h-224q-16 0-16-16v-96q0-16 16-16h112V784q0-16 16-16h96q16 0 16 16zm128 752V640H192v896h1664zm128-896v896q0 53-37.5 90.5T1856 1664H192q-53 0-90.5-37.5T64 1536V640q0-53 37.5-90.5T192 512h1664q53 0 90.5 37.5T1984 640z"/></svg>