<svg id="Layer_1" xmlns="http://www.w3.org/2000/svg" viewBox="0 0 2048 2048"><style>.plasma{fill:#ed3044}</style><path class="plasma" fill="currentColor" d="M1780.5 269.5c-17-18.1-45.5-19-63.6-1.9l-798.7 751.1 153.8 65.9 708.5-753.4c16.1-17.2 16.3-44.3 0-61.7z"/><path d="M1090 1152.1l-271.7-116.5-77.7 77.7-19.4-19.5-38.8 38.9 19.4 19.4-77.6 77.6 194.1 194.1 77.6-77.6 19.4 19.4 38.9-38.8-19.5-19.4z"/><path transform="rotate(-45.004 468.93 1423.821)" d="M276.8 1396.5h384.3v54.9H276.8z"/><path transform="rotate(-44.996 546.583 1501.39)" d="M354.5 1474h384.3v54.9H354.5z"/><path d="M468.9 1695.6l38.8 38.8 271.8-271.8-38.9-38.8z"/><path transform="rotate(-45.001 352.422 1695.572)" d="M325 1585.8h54.9v219.6H325z"/></svg>