<svg width="2048" height="2048" viewBox="0 0 2048 2048" xmlns="http://www.w3.org/2000/svg"><path d="M384 1440v192q0 13-9.5 22.5T352 1664H160q-13 0-22.5-9.5T128 1632v-192q0-13 9.5-22.5t22.5-9.5h192q13 0 22.5 9.5t9.5 22.5zm0-384v192q0 13-9.5 22.5T352 1280H160q-13 0-22.5-9.5T128 1248v-192q0-13 9.5-22.5t22.5-9.5h192q13 0 22.5 9.5t9.5 22.5zm0-384v192q0 13-9.5 22.5T352 896H160q-13 0-22.5-9.5T128 864V672q0-13 9.5-22.5T160 640h192q13 0 22.5 9.5T384 672zm1536 768v192q0 13-9.5 22.5t-22.5 9.5H544q-13 0-22.5-9.5T512 1632v-192q0-13 9.5-22.5t22.5-9.5h1344q13 0 22.5 9.5t9.5 22.5zM384 288v192q0 13-9.5 22.5T352 512H160q-13 0-22.5-9.5T128 480V288q0-13 9.5-22.5T160 256h192q13 0 22.5 9.5T384 288zm1536 768v192q0 13-9.5 22.5t-22.5 9.5H544q-13 0-22.5-9.5T512 1248v-192q0-13 9.5-22.5t22.5-9.5h1344q13 0 22.5 9.5t9.5 22.5zm0-384v192q0 13-9.5 22.5T1888 896H544q-13 0-22.5-9.5T512 864V672q0-13 9.5-22.5T544 640h1344q13 0 22.5 9.5t9.5 22.5zm0-384v192q0 13-9.5 22.5T1888 512H544q-13 0-22.5-9.5T512 480V288q0-13 9.5-22.5T544 256h1344q13 0 22.5 9.5t9.5 22.5z"/></svg>