<svg width="2048" height="2048" viewBox="0 0 2048 2048" xmlns="http://www.w3.org/2000/svg"><path d="M512 1536q0 80-56 136t-136 56-136-56-56-136 56-136 136-56 136 56 56 136zm0-512q0 80-56 136t-136 56-136-56-56-136 56-136 136-56 136 56 56 136zm1408 416v192q0 13-9.5 22.5t-22.5 9.5H672q-13 0-22.5-9.5T640 1632v-192q0-13 9.5-22.5t22.5-9.5h1216q13 0 22.5 9.5t9.5 22.5zM512 512q0 80-56 136t-136 56-136-56-56-136 56-136 136-56 136 56 56 136zm1408 416v192q0 13-9.5 22.5t-22.5 9.5H672q-13 0-22.5-9.5T640 1120V928q0-13 9.5-22.5T672 896h1216q13 0 22.5 9.5t9.5 22.5zm0-512v192q0 13-9.5 22.5T1888 640H672q-13 0-22.5-9.5T640 608V416q0-13 9.5-22.5T672 384h1216q13 0 22.5 9.5t9.5 22.5z"/></svg>