<svg width="2048" height="2048" viewBox="0 0 2048 2048" xmlns="http://www.w3.org/2000/svg"><path d="M509 1748q0 80-54.5 126T319 1920q-106 0-172-66l57-88q49 45 106 45 29 0 50.5-14.5T382 1754q0-64-105-56l-26-56q8-10 32.5-43.5t42.5-54 37-38.5v-1q-16 0-48.5 1t-48.5 1v53H160v-152h333v88l-95 115q51 12 81 49t30 88zm2-627v159H149q-6-36-6-54 0-51 23.5-93t56.5-68 66-47.5 56.5-43.5 23.5-45q0-25-14.5-38.5T315 877q-46 0-81 58l-85-59q24-51 71.5-79.5T326 768q73 0 123 41.5T499 922q0 50-34 91.5t-75 64.5-75.5 50.5T279 1181h127v-60h105zm1409 319v192q0 13-9.5 22.5t-22.5 9.5H672q-13 0-22.5-9.5T640 1632v-192q0-14 9-23t23-9h1216q13 0 22.5 9.5t9.5 22.5zM512 541v99H177v-99h107q0-41 .5-122t.5-121v-12h-2q-8 17-50 54l-71-76 136-127h106v404h108zm1408 387v192q0 13-9.5 22.5t-22.5 9.5H672q-13 0-22.5-9.5T640 1120V928q0-14 9-23t23-9h1216q13 0 22.5 9.5t9.5 22.5zm0-512v192q0 13-9.5 22.5T1888 640H672q-13 0-22.5-9.5T640 608V416q0-13 9.5-22.5T672 384h1216q13 0 22.5 9.5t9.5 22.5z"/></svg>