<svg width="2048" height="2048" viewBox="0 0 2048 2048" xmlns="http://www.w3.org/2000/svg"><path d="M512 1312v64q0 13-9.5 22.5T480 1408h-64q-13 0-22.5-9.5T384 1376v-64q0-13 9.5-22.5t22.5-9.5h64q13 0 22.5 9.5t9.5 22.5zm0-256v64q0 13-9.5 22.5T480 1152h-64q-13 0-22.5-9.5T384 1120v-64q0-13 9.5-22.5t22.5-9.5h64q13 0 22.5 9.5t9.5 22.5zm0-256v64q0 13-9.5 22.5T480 896h-64q-13 0-22.5-9.5T384 864v-64q0-13 9.5-22.5T416 768h64q13 0 22.5 9.5T512 800zm1152 512v64q0 13-9.5 22.5t-22.5 9.5H672q-13 0-22.5-9.5T640 1376v-64q0-13 9.5-22.5t22.5-9.5h960q13 0 22.5 9.5t9.5 22.5zm0-256v64q0 13-9.5 22.5t-22.5 9.5H672q-13 0-22.5-9.5T640 1120v-64q0-13 9.5-22.5t22.5-9.5h960q13 0 22.5 9.5t9.5 22.5zm0-256v64q0 13-9.5 22.5T1632 896H672q-13 0-22.5-9.5T640 864v-64q0-13 9.5-22.5T672 768h960q13 0 22.5 9.5t9.5 22.5zm128 704V672q0-13-9.5-22.5T1760 640H288q-13 0-22.5 9.5T256 672v832q0 13 9.5 22.5t22.5 9.5h1472q13 0 22.5-9.5t9.5-22.5zm128-1088v1088q0 66-47 113t-113 47H288q-66 0-113-47t-47-113V416q0-66 47-113t113-47h1472q66 0 113 47t47 113z"/></svg>