<svg width="2048" height="2048" viewBox="0 0 2048 2048" xmlns="http://www.w3.org/2000/svg"><path d="M1408 1248v-192q0-14-9-23t-23-9h-224V800q0-14-9-23t-23-9H928q-14 0-23 9t-9 23v224H672q-14 0-23 9t-9 23v192q0 14 9 23t23 9h224v224q0 14 9 23t23 9h192q14 0 23-9t9-23v-224h224q14 0 23-9t9-23zM768 512h512V384H768v128zm-384 0v1280h-32q-92 0-158-66t-66-158V736q0-92 66-158t158-66h32zm1184 0v1280H480V512h160V352q0-40 28-68t68-28h576q40 0 68 28t28 68v160h160zm352 224v832q0 92-66 158t-158 66h-32V512h32q92 0 158 66t66 158z"/></svg>