<svg width="2048" height="2048" viewBox="0 0 2048 2048" xmlns="http://www.w3.org/2000/svg"><path d="M1408 1216q0 26-19 45t-45 19H704q-26 0-45-19t-19-45 19-45 45-19h640q26 0 45 19t19 45zM896 768q0 53-37.5 90.5T768 896t-90.5-37.5T640 768t37.5-90.5T768 640t90.5 37.5T896 768zm512 0q0 53-37.5 90.5T1280 896t-90.5-37.5T1152 768t37.5-90.5T1280 640t90.5 37.5T1408 768zm256 256q0-130-51-248.5t-136.5-204-204-136.5-248.5-51-248.5 51-204 136.5-136.5 204-51 248.5 51 248.5 136.5 204 204 136.5 248.5 51 248.5-51 204-136.5 136.5-204 51-248.5zm128 0q0 209-103 385.5T1409.5 1689 1024 1792t-385.5-103T359 1409.5 256 1024t103-385.5T638.5 359 1024 256t385.5 103T1689 638.5t103 385.5z"/></svg>