<svg xmlns="http://www.w3.org/2000/svg" viewBox="0 0 2048 2048"><path d="M828.8 430.2l156.8-261.8c-18.5-8-37.9-13.7-59.2-13.7-85.9 0-155.6 69.6-155.6 155.6-.1 48.7 22.9 91.4 58 119.9z"/><path d="M1892.2 1204.2l-41.7-27.9c-8.1-135.5-56.5-267.5-141.8-376.8l-109.1 14 7.5-11.3c28.5-42.6 16.9-100.7-25.7-129.2l-60.8-40.6c-42.6-28.5-100.7-16.9-129.2 25.7l-8.5 12.9-48.4-289.7L1040 198.2 882.1 462l77.5 43.3L397.5 434l-81.2 121.8 339 226.5c-15.3 18.3-30 37.3-43.5 57.5-13.6 20.3-25.4 41.1-36.5 62.3L236.1 675.5l-81.3 121.8L594 1565.7l.8-1.1c8.9 14.7 18.6 28.9 28.6 43.2l146.5-18.8-27.2 40.7c-28.5 42.6-16.9 100.7 25.7 129.2l60.8 40.6c42.6 28.5 100.7 16.9 129.2-25.7l22.7-33.9 16.6 129.8c127.7 34.6 261.3 30.1 384.7-9.5l49.7 33.3c136-48 258.4-138.8 344.6-267.9 86.2-129.7 123.2-277.4 115.5-421.4zm-500 364.7c-9.6 14.2-28.8 18.1-43.1 8.5-14.2-9.6-18.1-28.8-8.5-43.1 9.6-14.2 28.8-18.1 43.1-8.5s18 28.9 8.5 43.1zm-10.9-215.2c-46.1 69.1-123.5 110.5-206.7 110.5-49.1 0-96.7-14.5-137.7-41.9-113.8-76-144.6-230.5-68.6-344.4 46.3-69.1 123.5-110.5 206.8-110.5 49.1 0 96.7 14.5 137.7 41.8 113.8 76.3 144.6 230.7 68.5 344.5zm98.6 343.2c-9.6 14.2-28.8 18.1-43.1 8.5s-18.1-28.8-8.5-43.1c9.6-14.2 28.8-18.1 43.1-8.5 14.2 9.6 18.1 28.8 8.5 43.1zm24.3-243.7c-9.6 14.2-28.8 18.1-43.1 8.5-14.2-9.6-18.1-28.8-8.5-43.1s28.8-18.1 43.1-8.5c14.2 9.5 17.9 28.9 8.5 43.1zm20.9-139.3c-14.2-9.6-18.1-28.8-8.5-43.1 9.6-14.2 28.8-18.1 43.1-8.5s18.1 28.8 8.5 43.1c-9.4 14.2-28.7 18-43.1 8.5zm98.9 219.3c-9.6 14.2-28.8 18.1-43.1 8.5-14.2-9.6-18.1-28.8-8.5-43.1s28.8-18.1 43.1-8.5c14.2 9.6 18 28.8 8.5 43.1zm96.1-195.7c-9.6 14.2-28.8 18.1-43.1 8.5s-18.1-28.8-8.5-43.1c9.6-14.2 28.8-18.1 43.1-8.5 14.2 9.6 18 28.8 8.5 43.1z"/><path d="M1278.3 1061c-30.8-20.5-66.4-31.4-103.2-31.4-62.4 0-120.4 31-155 82.8-57.1 85.4-33.9 201.3 51.4 258.3 30.8 20.5 66.5 31.4 103.3 31.4 62.4 0 120.4-31 155-82.8 56.9-85.4 33.8-201.3-51.5-258.3z"/></svg>