<svg width="2048" height="2048" viewBox="0 0 2048 2048" xmlns="http://www.w3.org/2000/svg"><path d="M1518 1431q-54 9-110 9-182 0-337-90t-245-245-90-337q0-192 104-357-201 60-328.5 229T384 1024q0 130 51 248.5t136.5 204 204 136.5 248.5 51q144 0 273.5-61.5T1518 1431zm203-85q-94 203-283.5 324.5T1024 1792q-156 0-298-61t-245-164-164-245-61-298q0-153 57.5-292.5t156-241.5T705 325.5 995 257q44-2 61 39 18 41-15 72-86 78-131.5 181.5T864 768q0 148 73 273t198 198 273 73q118 0 228-51 41-18 72 13 14 14 17.5 34t-4.5 38z"/></svg>