<svg width="2048" height="2048" viewBox="0 0 2048 2048" xmlns="http://www.w3.org/2000/svg"><path d="M512 672v576q0 13-9.5 22.5T480 1280q-14 0-23-9L169 983q-9-9-9-23t9-23l288-288q9-9 23-9 13 0 22.5 9.5T512 672zm1408 768v192q0 13-9.5 22.5t-22.5 9.5H160q-13 0-22.5-9.5T128 1632v-192q0-13 9.5-22.5t22.5-9.5h1728q13 0 22.5 9.5t9.5 22.5zm0-384v192q0 13-9.5 22.5t-22.5 9.5H800q-13 0-22.5-9.5T768 1248v-192q0-13 9.5-22.5t22.5-9.5h1088q13 0 22.5 9.5t9.5 22.5zm0-384v192q0 13-9.5 22.5T1888 896H800q-13 0-22.5-9.5T768 864V672q0-13 9.5-22.5T800 640h1088q13 0 22.5 9.5t9.5 22.5zm0-384v192q0 13-9.5 22.5T1888 512H160q-13 0-22.5-9.5T128 480V288q0-13 9.5-22.5T160 256h1728q13 0 22.5 9.5t9.5 22.5z"/></svg>