<svg width="2048" height="2048" viewBox="0 0 2048 2048" xmlns="http://www.w3.org/2000/svg"><path d="M1240 574q0-159-237-159h-70q-32 0-59.5 21.5T839 489l-63 276q-2 5-2 16 0 24 17 39.5t41 15.5h53q69 0 128.5-13t112.5-41 83.5-81.5T1240 574zm604 152q0 265-220 428-219 161-612 161h-61q-32 0-59 21.5t-34 52.5l-73 316q-8 36-40.5 61.5T675 1792H462q-31 0-53-20t-22-51q0-10 13-65h151q34 0 64-23.5t38-56.5l73-316q8-33 37.5-57t63.5-24h61q390 0 607-160t217-421q0-129-51-207 183 92 183 335zm-183-185q0 264-221 428-218 161-612 161h-60q-32 0-59.5 22t-34.5 53l-73 315q-8 36-40 61.5t-69 25.5H278q-31 0-52.5-19.5T204 1536q0-8 2-20L506 215q8-36 40.5-61.5T616 128h444q68 0 125 4t120.5 15 113.5 30 96.5 50.5 77.5 74 49.5 103.5 18.5 136z"/></svg>