<svg width="2048" height="2048" viewBox="0 0 2048 2048" xmlns="http://www.w3.org/2000/svg"><path d="M1792 1024q0 209-103 385.5T1409.5 1689 1024 1792q-111 0-218-32 59-93 78-164 9-34 54-211 20 39 73 67.5t114 28.5q121 0 216-68.5t147-188.5 52-270q0-114-59.5-214T1308 577t-255-63q-105 0-196 29t-154.5 77-109 110.5-67 129.5T505 994q0 104 40 183t117 111q30 12 38-20 2-7 8-31t8-30q6-23-11-43-51-61-51-151 0-151 104.5-259.5T1032 645q151 0 235.5 82t84.5 213q0 170-68.5 289T1108 1348q-61 0-98-43.5T987 1200q8-35 26.5-93.5t30-103T1055 928q0-50-27-83t-77-33q-62 0-105 57t-43 142q0 73 25 122l-99 418q-17 70-13 177-206-91-333-281t-127-423q0-209 103-385.5T638.5 359 1024 256t385.5 103T1689 638.5t103 385.5z"/></svg>