<svg width="2048" height="2048" viewBox="0 0 2048 2048" xmlns="http://www.w3.org/2000/svg"><path d="M1504 256q119 0 203.5 84.5T1792 544v960q0 119-84.5 203.5T1504 1792H779q85-122 108-210 9-34 53-209 21 39 73.5 67t112.5 28q181 0 295.5-147.5T1536 947q0-84-35-162.5t-96.5-139-152.5-97-197-36.5q-104 0-194.5 28.5t-153 76.5T600 726.5t-66.5 128T512 987q0 102 39.5 180T668 1277q13 5 23.5 0t14.5-19q10-44 15-61 6-23-11-42-50-62-50-150 0-150 103.5-256.5T1034 642q149 0 232.5 81t83.5 210q0 168-67.5 286T1109 1337q-60 0-97-43.5T989 1190q8-34 26.5-92.5t29.5-102 11-74.5q0-49-26.5-81.5T954 807q-61 0-103.5 56.5T808 1003q0 72 24 121l-98 414q-24 100-7 254H544q-119 0-203.5-84.5T256 1504V544q0-119 84.5-203.5T544 256h960z"/></svg>