<svg width="2048" height="2048" viewBox="0 0 2048 2048" xmlns="http://www.w3.org/2000/svg"><path d="M1472 928v64q0 14-9 23t-23 9h-352v352q0 14-9 23t-23 9h-64q-14 0-23-9t-9-23v-352H608q-14 0-23-9t-9-23v-64q0-14 9-23t23-9h352V544q0-14 9-23t23-9h64q14 0 23 9t9 23v352h352q14 0 23 9t9 23zm128 448V544q0-66-47-113t-113-47H608q-66 0-113 47t-47 113v832q0 66 47 113t113 47h832q66 0 113-47t47-113zm128-832v832q0 119-84.5 203.5T1440 1664H608q-119 0-203.5-84.5T320 1376V544q0-119 84.5-203.5T608 256h832q119 0 203.5 84.5T1728 544z"/></svg>