<svg xmlns="http://www.w3.org/2000/svg" viewBox="0 0 2048 2048"><path d="M842.1 1084.1c-33.2 0-60 26.8-60 60s26.8 60 60 60 60-26.8 60-60-26.8-60-60-60zM1202 1084.1c-33.2 0-60 26.8-60 60s26.8 60 60 60 60-26.8 60-60-26.8-60-60-60z"/><path d="M1683.7 664.2c-22.1 0-43.1 4.6-62.6 11.9-27.1-275.6-283.9-491.8-597.1-491.8S453.9 400.4 426.9 676.1c-19.6-7.3-40.6-11.9-62.6-11.9-99 0-179.9 81-179.9 179.9V1144c0 99 81 179.9 179.9 179.9 24.1 0 47-5 68-13.5 9.7 93.4 26.1 154 50.2 193.6 46.3 71.6 355.3 359.9 539.8 359.9s493.7-288.6 538.4-357.8c25.1-40.9 41.9-102.6 51.7-197 22 9.6 46 15 71.3 15 99 0 179.9-81 179.9-179.9v-300c-.1-99-81-180-179.9-180zm-223.9 776.7c-41.4 64-318.9 302.9-437.7 302.9s-396.3-238.9-437.5-302.6c-27.5-44.7-38.1-164.7-42-283.1.4-4.7 1.4-9.2 1.4-14v-240c0-3.4.5-6.7.5-10.1 31.1 6.5 63.5 10.1 96.9 10.1 171.2 0 318.2-89.1 382.5-216.3 64.4 127.2 211.3 216.3 382.5 216.3 33.4 0 65.7-3.7 96.9-10.1.1 3.4.5 6.7.5 10.1 0 6.6-.7 13-1 19.6 1.6 124.1 5.3 438.4-43 517.2z"/></svg>