<svg id="Layer_1" xmlns="http://www.w3.org/2000/svg" viewBox="0 0 2048 2048"><style>.st0{fill:#fd0101}</style><path d="M1731.2 1554.4V847.1c0-65.1-52.8-117.8-117.8-117.8h-117.9v825L1377.7 1849h471.5l-118-294.6zM552.3 965V729.4H434.5c-65.1 0-117.8 52.8-117.8 117.8v707.3l-117.8 294.7h471.5l-118.1-294.8V965zM1434.5 670.3h1.9v-59c0-227.8-184.8-412.5-412.6-412.5S611.2 383.5 611.2 611.3v59h823.3zm-174.9-176.8c32.6 0 58.9 26.4 58.9 58.9s-26.4 58.9-58.9 58.9-58.9-26.4-58.9-58.9 26.3-58.9 58.9-58.9zm-235.7-206.3c65.1 0 117.8 52.8 117.8 117.8s-52.8 117.8-117.8 117.8c-65.1 0-117.8-52.8-117.8-117.8s52.7-117.8 117.8-117.8z"/><path d="M1436.5 729.3H611.2v825.1L729 1672.2h589.4l117.8-117.8V729.3h.3zm-235.8 471.5H847c-32.6 0-58.9-26.4-58.9-58.9s26.4-58.9 58.9-58.9h353.6c32.6 0 58.9 26.4 58.9 58.9s-26.3 58.9-58.8 58.9zm0-235.8H847c-32.6 0-58.9-26.4-58.9-58.9s26.4-58.9 58.9-58.9h353.6c32.6 0 58.9 26.4 58.9 58.9.1 32.5-26.3 58.9-58.8 58.9z"/><path fill="var(--danger-color,#fd0101)" d="M1318.5 552.4c0-32.5-26.3-58.9-58.9-58.9s-58.9 26.4-58.9 58.9 26.4 58.9 58.9 58.9 58.9-26.4 58.9-58.9z"/></svg>