<svg width="2048" height="2048" viewBox="0 0 2048 2048" xmlns="http://www.w3.org/2000/svg"><path d="M863 1092q0 56-40.5 96t-96.5 40q-57 0-98-40t-41-96q0-57 41.5-98t97.5-41 96.5 41 40.5 98zm461-139q56 0 96.5 41t40.5 98q0 56-40.5 96t-96.5 40q-57 0-98-40t-41-96q0-57 41.5-98t97.5-41zm692-11q0 62-31 114t-83 82q5 33 5 61 0 121-68.5 230.5T1641 1623q-125 82-285.5 125.5T1020 1792q-176 0-336.5-43.5T399 1623q-129-84-197.5-193T133 1199q0-29 5-66-48-31-77-81.5T32 942q0-94 66-160t160-66q83 0 148 55 248-158 592-164l134-423q4-14 17.5-21.5t28.5-4.5l347 82q22-50 68.5-81t102.5-31q77 0 131.5 54.5T1882 314t-54.5 132-131.5 55q-76 0-130.5-54T1510 316l-315-74-116 366q327 14 560 166 64-58 151-58 94 0 160 66t66 160zm-320-737q-45 0-77 32t-32 77 32 77 77 32 77-32 32-77-32-77-77-32zM109 942q0 67 51 111 49-131 180-235-36-25-82-25-62 0-105.5 43.5T109 942zm1490 617q112-73 171.5-166t59.5-194-59.5-193.5T1599 840q-116-75-265.5-115.5T1020 684t-313.5 40.5T441 840q-112 73-171.5 165.5T210 1199t59.5 194T441 1559q116 75 265.5 115.5T1020 1715t313.5-40.5T1599 1559zm283-500q57-46 57-117 0-62-43.5-105.5T1790 793q-49 0-86 28 131 105 178 238zm-592 368q11-11 27-11t27 11 11 27.5-11 27.5q-99 99-319 99h-2q-220 0-319-99-11-11-11-27.5t11-27.5 27-11 27 11q77 77 265 77h2q188 0 265-77z"/></svg>