<svg width="2048" height="2048" viewBox="0 0 2048 2048" xmlns="http://www.w3.org/2000/svg"><path d="M704 1472q0 80-56 136t-136 56-136-56-56-136 56-136 136-56 136 56 56 136zm512 123q2 28-17 48-18 21-47 21h-135q-25 0-43-16.5t-20-41.5q-22-229-184.5-391.5T378 1030q-25-2-41.5-20T320 967V832q0-29 21-47 17-17 43-17h5q160 13 306 80.5T954 1030q114 113 181.5 259t80.5 306zm512 2q2 27-18 47-18 20-46 20h-143q-26 0-44.5-17.5T1457 1604q-12-215-101-408.5t-231.5-336-336-231.5T380 526q-25-1-42.5-19.5T320 463V320q0-28 20-46 18-18 44-18h3q262 13 501.5 120T1314 670q187 186 294 425.5t120 501.5z"/></svg>