<svg width="2048" height="2048" viewBox="0 0 2048 2048" xmlns="http://www.w3.org/2000/svg"><path d="M1216 928v64q0 13-9.5 22.5t-22.5 9.5H960v224q0 13-9.5 22.5T928 1280h-64q-13 0-22.5-9.5T832 1248v-224H608q-13 0-22.5-9.5T576 992v-64q0-13 9.5-22.5T608 896h224V672q0-13 9.5-22.5T864 640h64q13 0 22.5 9.5T960 672v224h224q13 0 22.5 9.5t9.5 22.5zm128 32q0-185-131.5-316.5T896 512 579.5 643.5 448 960t131.5 316.5T896 1408t316.5-131.5T1344 960zm512 832q0 53-37.5 90.5T1728 1920q-54 0-90-38l-343-342q-179 124-399 124-143 0-273.5-55.5t-225-150-150-225T192 960t55.5-273.5 150-225 225-150T896 256t273.5 55.5 225 150 150 225T1600 960q0 220-124 399l343 343q37 37 37 90z"/></svg>