<svg width="2048" height="2048" viewBox="0 0 2048 2048" xmlns="http://www.w3.org/2000/svg"><path d="M1261 1229l352-352q19-19 19-45t-19-45l-352-352q-30-31-69-14-40 17-40 59v160q-119 0-216 19.5t-162.5 51-114 79T583 885t-44.5 109-21.5 111.5-5 110.5q0 181 167 404 10 12 25 12 7 0 13-3 22-9 19-33-44-354 62-473 46-52 130-75.5t224-23.5v160q0 42 40 59 12 5 24 5 26 0 45-19zm531-685v960q0 119-84.5 203.5T1504 1792H544q-119 0-203.5-84.5T256 1504V544q0-119 84.5-203.5T544 256h960q119 0 203.5 84.5T1792 544z"/></svg>