<svg width="2048" height="2048" viewBox="0 0 2048 2048" xmlns="http://www.w3.org/2000/svg"><path d="M1600 1117v259q0 119-84.5 203.5T1312 1664H480q-119 0-203.5-84.5T192 1376V544q0-119 84.5-203.5T480 256h255q13 0 22.5 9.5T767 288q0 27-26 32-77 26-133 60-10 4-16 4H480q-66 0-113 47t-47 113v832q0 66 47 113t113 47h832q66 0 113-47t47-113v-214q0-19 18-29 28-13 54-37 16-16 35-8 21 9 21 29zm237-496l-384 384q-18 19-45 19-12 0-25-5-39-17-39-59V768h-160q-323 0-438 131-119 137-74 473 3 23-20 34-8 2-12 2-16 0-26-13-10-14-21-31t-39.5-68.5T504 1196t-38.5-114T448 960q0-49 3.5-91t14-90 28-88 47-81.5 68.5-74 94.5-61.5T828 425.5 987.5 395t196.5-11h160V192q0-42 39-59 13-5 25-5 26 0 45 19l384 384q19 19 19 45t-19 45z"/></svg>