<svg width="2048" height="2048" viewBox="0 0 2048 2048" xmlns="http://www.w3.org/2000/svg"><path d="M1536 1323q0-88-62.5-151t-150.5-63q-84 0-145 58l-241-120q2-16 2-23t-2-23l241-120q61 58 145 58 88 0 150.5-63t62.5-151-62.5-150.5T1323 512t-151 62.5-63 150.5q0 7 2 23L870 868q-62-57-145-57-88 0-150.5 62.5T512 1024t62.5 150.5T725 1237q83 0 145-57l241 120q-2 16-2 23 0 88 63 150.5t151 62.5 150.5-62.5T1536 1323zm256-779v960q0 119-84.5 203.5T1504 1792H544q-119 0-203.5-84.5T256 1504V544q0-119 84.5-203.5T544 256h960q119 0 203.5 84.5T1792 544z"/></svg>