<svg width="2048" height="2048" viewBox="0 0 2048 2048" xmlns="http://www.w3.org/2000/svg"><path d="M832 1664q0 53-37.5 90.5T704 1792t-90.5-37.5T576 1664t37.5-90.5T704 1536t90.5 37.5T832 1664zm896 0q0 53-37.5 90.5T1600 1792t-90.5-37.5-37.5-90.5 37.5-90.5 90.5-37.5 90.5 37.5 37.5 90.5zm128-1088v512q0 24-16 42.5t-41 21.5L755 1274q1 7 4.5 21.5t6 26.5 2.5 22q0 16-24 64h920q26 0 45 19t19 45-19 45-45 19H640q-26 0-45-19t-19-45q0-14 11-39.5t29.5-59.5 20.5-38L460 512H256q-26 0-45-19t-19-45 19-45 45-19h256q16 0 28.5 6.5t20 15.5 13 24.5T581 457t5.5 29.5T591 512h1201q26 0 45 19t19 45z"/></svg>