<svg width="2048" height="2048" viewBox="0 0 2048 2048" xmlns="http://www.w3.org/2000/svg"><path d="M1711 904q62 0 103.5 40.5T1856 1046q0 97-93 130l-172 59 56 167q7 21 7 47 0 59-42 102t-101 43q-47 0-85.5-27t-53.5-72l-55-165-310 106 55 164q8 24 8 47 0 59-42 102t-102 43q-47 0-85-27t-53-72l-55-163-153 53q-29 9-50 9-61 0-101.5-40T388 1451q0-47 27.5-85t71.5-53l156-53-105-313-156 54q-26 8-48 8-60 0-101-40.5T192 868q0-47 27.5-85t71.5-53l157-53-53-159q-8-24-8-47 0-60 42-102.5T531 326q47 0 85 27t53 72l54 160 310-105-54-160q-8-24-8-47 0-59 42.5-102t101.5-43q47 0 85.5 27.5T1254 227l53 161 162-55q21-6 43-6 60 0 102.5 39.5T1657 465q0 45-30 81.5t-74 51.5l-157 54 105 316 164-56q24-8 46-8zm-794 262l310-105-105-315-310 107z"/></svg>