<svg width="2048" height="2048" viewBox="0 0 2048 2048" xmlns="http://www.w3.org/2000/svg"><path d="M736 1472q0 60-42.5 102T592 1616q-60 0-102-42t-42-102 42-102 102-42q59 0 101.5 42t42.5 102zm432 192q0 53-37.5 90.5T1040 1792t-90.5-37.5T912 1664t37.5-90.5 90.5-37.5 90.5 37.5 37.5 90.5zm-608-640q0 66-47 113t-113 47-113-47-47-113 47-113 113-47 113 47 47 113zm1040 448q0 46-33 79t-79 33-79-33-33-79 33-79 79-33 79 33 33 79zM768 576q0 73-51.5 124.5T592 752t-124.5-51.5T416 576t51.5-124.5T592 400t124.5 51.5T768 576zm464-192q0 80-56 136t-136 56-136-56-56-136 56-136 136-56 136 56 56 136zm544 640q0 40-28 68t-68 28-68-28-28-68 28-68 68-28 68 28 28 68zm-208-448q0 33-23.5 56.5T1488 656t-56.5-23.5T1408 576t23.5-56.5T1488 496t56.5 23.5T1568 576z"/></svg>