<svg width="2048" height="2048" viewBox="0 0 2048 2048" xmlns="http://www.w3.org/2000/svg"><path d="M1498 775q0-80-57-136.5T1304 582t-136.5 57-56.5 136q0 80 56.5 136.5T1304 968t137-56.5 57-136.5zm-610 588q0 83-58 140.5T690 1561q-56 0-103-29t-72-77q52 20 98 40 60 24 120-1.5t85-86.5q24-60-1.5-120t-86.5-84l-82-33q22-5 42-5 82 0 140 57.5t58 140.5zm904-819v960q0 119-84.5 203.5T1504 1792H544q-119 0-203.5-84.5T256 1504v-153l172 69q20 92 93.5 152t168.5 60q104 0 181-70t87-173l345-252q150 0 255.5-105.5T1664 777q0-150-105.5-255.5T1303 416q-148 0-253 104.5T943 773l-225 322q-9-1-28-1-75 0-137 37l-297-119V544q0-119 84.5-203.5T544 256h960q119 0 203.5 84.5T1792 544zm-247 233q0 100-71 170.5t-171 70.5-170.5-70.5T1062 777t70.5-171 170.5-71q101 0 171.5 70.5T1545 777z"/></svg>