<svg width="2048" height="2048" viewBox="0 0 2048 2048" xmlns="http://www.w3.org/2000/svg"><path d="M1600 832q0-26-19-45t-45-19-45 19-19 45 19 45 45 19 45-19 19-45zm128 0q0 62-35.5 111t-92.5 70v395q0 159-131.5 271.5T1152 1792t-316.5-112.5T704 1408v-132q-164-20-274-128T320 896V384q0-26 19-45t45-19q6 0 16 2 17-30 47-48t65-18q53 0 90.5 37.5T640 384t-37.5 90.5T512 512q-33 0-64-18v402q0 106 94 181t226 75 226-75 94-181V494q-31 18-64 18-53 0-90.5-37.5T896 384t37.5-90.5T1024 256q35 0 65 18t47 48q10-2 16-2 26 0 45 19t19 45v512q0 144-110 252t-274 128v132q0 106 94 181t226 75 226-75 94-181v-395q-57-21-92.5-70T1344 832q0-80 56-136t136-56 136 56 56 136z"/></svg>