<svg xmlns="http://www.w3.org/2000/svg" viewBox="0 0 2048 2048"><path d="M905.9 1585.5c-16.3 0-29.5 13.2-29.5 29.5v177.3c0 16.3 13.2 29.5 29.5 29.5s29.5-13.2 29.5-29.5V1615c0-16.2-13.2-29.5-29.5-29.5zM1142.3 1585.5c-16.3 0-29.5 13.2-29.5 29.5v177.3c0 16.3 13.2 29.5 29.5 29.5s29.5-13.2 29.5-29.5V1615c.1-16.2-13.1-29.5-29.5-29.5zM1674.3 610.2v-59.1c0-195-161.9-354.7-359.7-354.7h-581c-197.8 0-359.7 159.7-359.7 354.7v59.1h1300.4z"/><path d="M1733.5 1083.1V787.5s0-59.1-59.1-59.1v-59.1H373.9v59.1c-59.1 0-59.1 59.1-59.1 59.1V1083c-75 33.2-118.2 95.1-118.2 177.3 0 109.9 176.1 263.8 176.1 295.5 0 177.3 122.5 295.5 301.4 295.5 65.4 0 125.4-20.7 173.6-55-.1-1.4-.8-2.6-.8-4V1615c0-32.6 26.6-59.1 59.1-59.1 26.4 0 48 17.6 55.5 41.6h3.6v-12c0-32.6 26.6-59.1 59.1-59.1s59.1 26.6 59.1 59.1v12h3.6c7.6-23.9 29.2-41.6 55.5-41.6 32.5 0 59.1 26.6 59.1 59.1v177.3c0 1.4-.7 2.6-.8 4 48.2 34.3 108.2 55 173.6 55 178.8 0 301.4-118.2 301.4-295.5 0-31.8 176.1-185.7 176.1-295.5-.1-82.1-43.3-144-118.3-177.2zM639.9 1733.4c-48.9 0-88.7-39.8-88.7-88.7 0-48.9 39.8-88.7 88.7-88.7 48.9 0 88.7 39.8 88.7 88.7 0 48.9-39.8 88.7-88.7 88.7zm88.7-413.9H627.3c-9.8 0-16.9-5.4-16.9-11.8 0-6.5 7-13.3 16.9-15.2l101.3-32v59zm177.3-74.5c-34.5 14.3-67.9 32.1-100.7 48.2-5.4 2.6-11.5 4.5-17.5 6.7V1218c41.9-36.1 79.4-60.8 118.2-77v104zm-295.5-221c-118.2 0-118.2-236.5-118.2-236.5h472.9S728.6 1024 610.4 1024zm472.8 201.3c-19.3-4.6-38.9-7.4-59.1-7.4-20.1 0-39.9 2.7-59.1 7.4v-102.4c18.7-3.7 38.2-6 59.1-6.9 21 .8 40.4 3.2 59.1 6.9v102.4zm177.4 74.6c-6-2-12.3-4-17.5-6.7-32.7-16.1-66.2-33.9-100.7-48.2v-104.2c38.8 16.2 76.2 41 118.2 77v82.1zm147.7 433.5c-48.9 0-88.7-39.8-88.7-88.7 0-48.9 39.8-88.7 88.7-88.7 48.9 0 88.7 39.8 88.7 88.7 0 48.9-39.7 88.7-88.7 88.7zm-88.7-413.9v-59.1l101.3 32c9.8 1.9 16.9 8.7 16.9 15.2s-7 11.8-16.9 11.8l-101.3.1zm118.3-295.5c-118.2 0-354.7-236.5-354.7-236.5h472.9s0 236.5-118.2 236.5z"/><path d="M1024.1 1556c-16.3 0-29.5 13.2-29.5 29.5V1822c0 16.3 13.2 29.5 29.5 29.5s29.5-13.2 29.5-29.5v-236.5c0-16.3-13.2-29.5-29.5-29.5z"/></svg>