<svg width="2048" height="2048" viewBox="0 0 2048 2048" xmlns="http://www.w3.org/2000/svg"><path d="M1122 967l90-27v-62q0-79-58-135t-138-56-138 55.5T820 877v283q0 20-14 33.5t-33 13.5-32.5-13.5T727 1160v-120H576v122q0 82 57.5 139t139.5 57q81 0 138.5-56.5T969 1165V885q0-19 13.5-33t33.5-14q19 0 32.5 14t13.5 33v54zm333 195v-122h-150v126q0 20-13.5 33.5T1258 1213q-19 0-32.5-14t-13.5-33v-123l-90 26-60-28v123q0 80 58 137t139 57 138.5-57 57.5-139zm337-138q0 209-103 385.5T1409.5 1689 1024 1792t-385.5-103T359 1409.5 256 1024t103-385.5T638.5 359 1024 256t385.5 103T1689 638.5t103 385.5z"/></svg>