<svg width="2048" height="2048" viewBox="0 0 2048 2048" xmlns="http://www.w3.org/2000/svg"><path d="M704 1504v-192q0-14-9-23t-23-9H352q-14 0-23 9t-9 23v192q0 14 9 23t23 9h320q14 0 23-9t9-23zm0-384V928q0-14-9-23t-23-9H352q-14 0-23 9t-9 23v192q0 14 9 23t23 9h320q14 0 23-9t9-23zm512 384v-192q0-14-9-23t-23-9H864q-14 0-23 9t-9 23v192q0 14 9 23t23 9h320q14 0 23-9t9-23zM704 736V544q0-14-9-23t-23-9H352q-14 0-23 9t-9 23v192q0 14 9 23t23 9h320q14 0 23-9t9-23zm512 384V928q0-14-9-23t-23-9H864q-14 0-23 9t-9 23v192q0 14 9 23t23 9h320q14 0 23-9t9-23zm512 384v-192q0-14-9-23t-23-9h-320q-14 0-23 9t-9 23v192q0 14 9 23t23 9h320q14 0 23-9t9-23zm-512-768V544q0-14-9-23t-23-9H864q-14 0-23 9t-9 23v192q0 14 9 23t23 9h320q14 0 23-9t9-23zm512 384V928q0-14-9-23t-23-9h-320q-14 0-23 9t-9 23v192q0 14 9 23t23 9h320q14 0 23-9t9-23zm0-384V544q0-14-9-23t-23-9h-320q-14 0-23 9t-9 23v192q0 14 9 23t23 9h320q14 0 23-9t9-23zm128-320v1088q0 66-47 113t-113 47H352q-66 0-113-47t-47-113V416q0-66 47-113t113-47h1344q66 0 113 47t47 113z"/></svg>