<svg width="2048" height="2048" viewBox="0 0 2048 2048" xmlns="http://www.w3.org/2000/svg"><path d="M512 1280q0-53-37.5-90.5T384 1152t-90.5 37.5T256 1280t37.5 90.5T384 1408t90.5-37.5T512 1280zm192-448q0-53-37.5-90.5T576 704t-90.5 37.5T448 832t37.5 90.5T576 960t90.5-37.5T704 832zm428 481l101-382q6-26-7.5-48.5T1187 853t-48 6.5-30 39.5l-101 382q-60 5-107 43.5t-63 98.5q-20 77 20 146t117 89 146-20 89-117q16-60-6-117t-72-91zm660-33q0-53-37.5-90.5T1664 1152t-90.5 37.5-37.5 90.5 37.5 90.5 90.5 37.5 90.5-37.5 37.5-90.5zm-640-640q0-53-37.5-90.5T1024 512t-90.5 37.5T896 640t37.5 90.5T1024 768t90.5-37.5T1152 640zm448 192q0-53-37.5-90.5T1472 704t-90.5 37.5T1344 832t37.5 90.5T1472 960t90.5-37.5T1600 832zm320 448q0 261-141 483-19 29-54 29H323q-35 0-54-29-141-221-141-483 0-182 71-348t191-286 286-191 348-71 348 71 286 191 191 286 71 348z"/></svg>