<svg width="2048" height="2048" viewBox="0 0 2048 2048" xmlns="http://www.w3.org/2000/svg"><path d="M512 576q0-53-37.5-90.5T384 448t-90.5 37.5T256 576t37.5 90.5T384 704t90.5-37.5T512 576zm1067 576q0 53-37 90l-491 492q-39 37-91 37-53 0-90-37l-715-716q-38-37-64.5-101T64 800V384q0-52 38-90t90-38h416q53 0 117 26.5T827 347l715 714q37 39 37 91zm384 0q0 53-37 90l-491 492q-39 37-91 37-36 0-59-14t-53-45l470-470q37-37 37-90 0-52-37-91L987 347q-38-38-102-64.5T768 256h224q53 0 117 26.5t102 64.5l715 714q37 39 37 91z"/></svg>