<svg width="2048" height="2048" viewBox="0 0 2048 2048" xmlns="http://www.w3.org/2000/svg"><path d="M1600 960q0 191-94.5 353T1249 1569.5 896 1664H736q-14 0-23-9t-9-23v-611l-215 66q-3 1-9 1-10 0-19-6-13-10-13-26V928q0-23 23-31l233-71v-93l-215 66q-3 1-9 1-10 0-19-6-13-10-13-26V640q0-23 23-31l233-71V288q0-14 9-23t23-9h160q14 0 23 9t9 23v181l375-116q15-5 28 5t13 26v128q0 23-23 31L928 664v93l375-116q15-5 28 5t13 26v128q0 23-23 31L928 952v487q188-13 318-151t130-328q0-14 9-23t23-9h160q14 0 23 9t9 23z"/></svg>