<svg width="2048" height="2048" viewBox="0 0 2048 2048" xmlns="http://www.w3.org/2000/svg"><path d="M576 1440v192q0 14-9 23t-23 9H352q-14 0-23-9t-9-23v-192q0-14 9-23t23-9h192q14 0 23 9t9 23zm-192-384v192q0 14-9 23t-23 9H160q-14 0-23-9t-9-23v-192q0-14 9-23t23-9h192q14 0 23 9t9 23zm576 384v192q0 14-9 23t-23 9H736q-14 0-23-9t-9-23v-192q0-14 9-23t23-9h192q14 0 23 9t9 23zm-192-384v192q0 14-9 23t-23 9H544q-14 0-23-9t-9-23v-192q0-14 9-23t23-9h192q14 0 23 9t9 23zM194 896q-28 0-47-19t-19-46V702h514v129q0 27-19 46t-46 19H194zm1150 544v192q0 14-9 23t-23 9h-192q-14 0-23-9t-9-23v-192q0-14 9-23t23-9h192q14 0 23 9t9 23zm-192-384v192q0 14-9 23t-23 9H928q-14 0-23-9t-9-23v-192q0-14 9-23t23-9h192q14 0 23 9t9 23zm576 384v192q0 14-9 23t-23 9h-192q-14 0-23-9t-9-23v-192q0-14 9-23t23-9h192q14 0 23 9t9 23zm-192-384v192q0 14-9 23t-23 9h-192q-14 0-23-9t-9-23v-192q0-14 9-23t23-9h192q14 0 23 9t9 23zm384-408v13h-514v-10q0-104-382-102-382 1-382 102v10H128v-13q0-17 8.5-43t34-64 65.5-75.5 110.5-76 160-67.5 224-47.5T1024 256t293 18.5 224 47.5 160.5 67.5 110.5 76 65.5 75.5 34 64 8.5 43zm0 408v192q0 14-9 23t-23 9h-192q-14 0-23-9t-9-23v-192q0-14 9-23t23-9h192q14 0 23 9t9 23zm0-354v129q0 27-19 46t-46 19h-384q-27 0-46-19t-19-46V702h514z"/></svg>