<svg width="2048" height="2048" viewBox="0 0 2048 2048" xmlns="http://www.w3.org/2000/svg"><path d="M1536 738q-56 25-121 34 68-40 93-117-65 38-134 51-61-66-153-66-87 0-148.5 61.5T1011 850q0 29 5 48-129-7-242-65T582 678q-29 50-29 106 0 114 91 175-47-1-100-26v2q0 75 50 133.5t123 72.5q-29 8-51 8-13 0-39-4 21 63 74.5 104t121.5 42q-116 90-261 90-26 0-50-3 148 94 322 94 112 0 210-35.5t168-95 120.5-137 75-162T1432 874q0-18-1-27 63-45 105-109zm256-194v960q0 119-84.5 203.5T1504 1792H544q-119 0-203.5-84.5T256 1504V544q0-119 84.5-203.5T544 256h960q119 0 203.5 84.5T1792 544z"/></svg>