<svg width="2048" height="2048" viewBox="0 0 2048 2048" xmlns="http://www.w3.org/2000/svg"><path d="M1753 955v198q-101 23-198 23-65 136-165.5 271T1208 1662.5 1080 1769q-80 45-162-3-28-17-60.5-43.5t-85-83.5T670 1510.5t-107.5-184-105.5-244T365.5 768 295 378h283q26 218 70 398.5t104.5 317T874 1329t140 195q169-169 287-406-142-72-223-220t-81-333q0-192 104-314.5T1385 128q178 0 273 105.5t95 297.5q0 159-58 286-7 1-19.5 3t-46 2-63-6-62-25.5T1454 739q31-103 31-184 0-87-29-132t-79-45q-53 0-85 49.5T1260 568q0 186 105 293.5T1632 969q62 0 121-14z"/></svg>