<svg width="2048" height="2048" viewBox="0 0 2048 2048" xmlns="http://www.w3.org/2000/svg"><path d="M1215 1315l102 204q-58 179-210 290t-339 111q-156 0-288.5-77.5t-210-210T192 1344q0-181 104.5-330T571 803l17 131q-122 54-195 165.5T320 1344q0 185 131.5 316.5T768 1792q126 0 232.5-65t165-175.5T1215 1315zm548 100l58 114-256 128q-13 7-29 7-40 0-57-35l-239-477H768q-24 0-42.5-16.5T704 1095l-96-779q-2-16 6-42 14-51 57-82.5t97-31.5q66 0 113 47t47 113q0 69-52 117.5T756 479l37 289h423v128H809l16 128h455q40 0 57 35l228 455z"/></svg>