<svg xmlns="http://www.w3.org/2000/svg">
  <symbol viewBox="0 0 26 24" id="generation-8">
    <title>girl</title>
    <path d="M17.5 12.5c0 .828-.56 1.5-1.25 1.5s-1.25-.672-1.25-1.5.56-1.5 1.25-1.5 1.25.672 1.25 1.5zm-7.75-1.5c-.69 0-1.25.672-1.25 1.5s.56 1.5 1.25 1.5 1.25-.672 1.25-1.5-.56-1.5-1.25-1.5zm3.25 8.354c2.235 0 3-2.354 3-2.354h-6s.847 2.354 3 2.354zm13 3.639c-2.653 1.714-5.418 1.254-6.842-1.488-1.672 1.505-3.706 2.487-6.158 2.487-2.53 0-4.517-.91-6.184-2.445-1.431 2.702-4.178 3.15-6.816 1.446 4.375-1.75-2.729-11.813 4.104-19.375 2.282-2.525 5.472-3.618 8.896-3.618s6.614 1.093 8.896 3.618c6.833 7.562-.271 17.625 4.104 19.375zm-5.668-6.111c.122-.202.312-.354.535-.43 2.447-.828 2.554-4.361 1.554-5.012-.235-.152-.531-.115-.672-.053-.664.295-1.406-.194-1.406-.914 0-.471-.034-1.001-.096-1.473h-10.101c-.813-1.021-.771-2.945-.396-4.57-.903.982-1.693 3.249-1.875 4.57h-2.121c-.062.472-.096 1.002-.096 1.473 0 .72-.742 1.209-1.406.914-.141-.062-.436-.1-.672.053-1 .651-.893 4.184 1.554 5.012.224.076.413.228.535.43 1.709 2.829 4.015 5.111 7.332 5.111 3.316 0 5.623-2.283 7.331-5.111z"/>
  </symbol>
  <symbol viewBox="0 0 24 24" id="weather-76">
    <title>bolt</title>
    <path d="M9.417 0h6.958l-3.375 8h7l-13 16 4.375-11h-7.375z"/>
  </symbol>
  <symbol viewBox="0 0 24 24" id="weather-93">
    <title>flame</title>
    <path d="M19 24h-14v-2h14v2zm-8.625-19.713c1.371 2.338 1.406 6.65.344 8.447 2.562-.312 5.115-2.838 5.674-4.533 1.043 1.439 1.607 3.144 1.607 4.966 0 1.554-.862 3.961-3.219 5.162-.219-1.391-1.125-2.906-2.638-3.766-1.44.844-2.497 2.688-2.784 3.938-1.234-.548-3.359-2.22-3.359-4.501 0-3.281 2.709-4.585 4.375-9.713zm-1.375-4.287c.542 6.292-5 8.458-5 14 0 3.764 3.49 6.42 7 7.005-.172-1.458.297-2.864 1.166-3.692.85.766 1.24 2.469.834 3.688 3.868-.75 7-3.858 7-7.833 0-3.626-1.833-7.043-5.291-9.168.604 2.312-.177 3.906-1.271 4.896.063-2.922-1.157-6.834-4.438-8.896z"/>
  </symbol>
</svg>
